<svg xmlns="http://www.w3.org/2000/svg" xmlns:xlink="http://www.w3.org/1999/xlink" version="1.1" x="0px" y="0px" viewBox="-10 -10 90 80" enable-background="new 0 0 67 67" xml:space="preserve"><g><g><path d="M62.3750305,47.7750053l3.4799805,3.4500732l-0.710022,0.7099609l-2.2600098-2.25v7.3000488    c0,3.25-2.6499634,5.9000244-5.9099731,5.9000244h-7.2999878l2.2699585,2.2600136l-0.7099609,0.7099609l-3.4700317-3.4699745    l3.460022-3.4699707l0.710022,0.7099609l-2.2600098,2.2600098h7.2999878c2.710022,0,4.9099731-2.2000732,4.9099731-4.9000244    v-7.3000488l-2.2699585,2.2600098l-0.710022-0.7000732L62.3750305,47.7750053z"/><path d="M51.2350159,8.0950756l-3.4700317-3.4699707l3.460022-3.4699707l0.710022,0.6999512l-2.2600098,2.2700195h7.2999878    c3.2600098,0,5.9099731,2.6398926,5.9099731,5.8999023v7.2900391l2.2600098-2.2600098l0.710022,0.7099609l-3.4700317,3.4700928    l-3.4799805-3.460083l0.710022-0.7099609l2.2699585,2.2700195v-7.3100586c0-2.7099609-2.1999512-4.8999023-4.9099731-4.8999023    h-7.2999878l2.2699585,2.2600098L51.2350159,8.0950756z"/><path d="M58.105011,40.6050835v-10.959959l-5.3900146-0.7000732c-0.4099731-1.2799072-0.9199829-2.5-1.5200195-3.6199951    l3.3300171-4.3100586l-7.7399902-7.75l-4.3200073,3.3400879c-1.1400146-0.6101074-2.3599854-1.1199951-3.6199951-1.5100098    l-0.6900024-5.4000244H27.2049866l-0.6900024,5.4100342c-1.2600098,0.3800049-2.4799805,0.8800049-3.6399536,1.5    l-4.3000488-3.3500977l-7.75,7.7600098l3.3400269,4.3100586c-0.6099854,1.1400146-1.1099854,2.3500977-1.5100098,3.6199951    l-5.4099731,0.7000732v10.959959l5.4099731,0.6899414c0.4000244,1.2700195,0.9000244,2.4799805,1.5100098,3.6101074    l-3.3400269,4.3299561l7.75,7.75l4.3000488-3.3399658c1.1299438,0.5998535,2.3299561,1.0998535,3.6399536,1.5l0.6900024,5.3999023    h10.9500122l0.6900024-5.3999023c1.3099976-0.4001465,2.5-0.9001465,3.6199951-1.5l4.3200073,3.3399658l7.7399902-7.75    l-3.3300171-4.3199463c0.6000366-1.130127,1.1100464-2.3500977,1.5100098-3.6201172L58.105011,40.6050835z M32.6850281,46.8150444    c-6.9100342,0-12.5400391-5.6099854-12.5400391-12.5200195c0-7.0238323,5.6632957-12.5300274,12.5400391-12.5300274    c7.1270638,0,12.5199585,5.881258,12.5199585,12.5300274C45.2049866,41.2050591,39.5849915,46.8150444,32.6850281,46.8150444z"/><path d="M4.6150208,19.2350903l-3.4700317-3.460083l0.710022-0.7099609l2.2600098,2.2600098v-7.3000488    c0-3.2600098,2.6499634-5.8999023,5.8999634-5.8999023h7.2999878l-2.2599487-2.2700195l0.7099609-0.7099609l3.4700317,3.4699707    l-3.460022,3.4799805l-0.710022-0.7099609l2.25-2.2600098h-7.2999878c-2.7000122,0-4.8999634,2.1899414-4.8999634,4.8999023    v7.3000488l2.2699585-2.2700195l0.7000122,0.7099609L4.6150208,19.2350903z"/><path d="M15.7649841,58.9151421l3.4700317,3.4699707l-3.460022,3.4699745l-0.710022-0.6999512l2.25-2.2700233h-7.2999878    c-3.25,0-5.8999634-2.6500244-5.8999634-5.9000244v-7.3000488L1.855011,51.9450493L1.144989,51.244976l3.4700317-3.4699707    l3.4699707,3.4500732l-0.7000122,0.7099609l-2.2699585-2.25v7.3000488c0,2.6999512,2.1999512,4.9000244,4.8999634,4.9000244    h7.2999878l-2.2599487-2.2600098L15.7649841,58.9151421z"/></g><g><path d="M33.4818001,33.0236053h-0.0319252l0.0799599-2.9752445c0.7997742,0.1440029,1.5515175,0.4639339,2.239315,0.9758015    l1.0557594-1.423624c-1.0077248-0.7358303-2.0954094-1.1676426-3.2631493-1.279623l0.0320206-0.799778l-1.023735-0.0320206    l-0.0319252,0.7837639c-1.9177475,0.059988-3.4666328,1.1711559-3.5350494,3.1191483    c-0.0349045,1.9877243,1.2747326,2.7113724,3.3750343,3.2790642l-0.0799599,3.0871277    c-0.9277668-0.17593-1.839426-0.6717873-2.7032471-1.4555511l-1.1836529,1.3435707    c1.1197052,1.0397453,2.4153404,1.647583,3.8548794,1.823513l-0.0319252,1.1677399l1.0237389,0.0319252l0.0319252-1.1516342    c2.0070076-0.0299835,3.6132545-1.1621628,3.6470261-3.1191444    C37.0088043,34.3086777,35.4962959,33.5535965,33.4818001,33.0236053z M32.4261398,32.7196846    c-0.878479-0.3172531-1.511198-0.6004181-1.4715633-1.4716587c0-0.82094,0.7293205-1.2087421,1.5515194-1.2636108    L32.4261398,32.7196846z M33.3218842,37.8222618l0.0799599-2.8632622    c0.9119415,0.3273888,1.6386909,0.6132507,1.5995522,1.5516205C34.96381,37.3741875,34.1833153,37.7414284,33.3218842,37.8222618z    "/></g></g></svg>