<svg id="svg" version="1.1" xmlns="http://www.w3.org/2000/svg" xmlns:xlink="http://www.w3.org/1999/xlink" width="400" height="400" viewBox="0, 0, 400,400"><g id="svgg"><path id="path0" d="M175.683 25.677 C 175.324 26.036,175.200 29.750,175.200 40.136 C 175.200 55.777,175.318 55.161,172.327 55.187 C 171.155 55.197,170.680 55.445,170.000 56.400 C 169.303 57.379,168.861 57.600,167.600 57.600 C 166.339 57.600,165.897 57.821,165.200 58.800 C 164.516 59.761,164.052 60.000,162.873 60.000 C 161.588 60.001,161.076 60.332,158.860 62.600 C 156.764 64.745,156.092 65.200,155.020 65.200 C 153.822 65.200,150.165 68.430,144.942 74.103 C 144.690 74.376,143.475 75.557,142.242 76.726 C 140.293 78.575,140.000 79.049,140.000 80.358 C 140.000 81.553,139.794 81.975,139.007 82.396 C 138.460 82.689,137.918 83.227,137.803 83.592 C 137.687 83.957,137.054 84.653,136.396 85.140 C 135.423 85.859,135.200 86.316,135.200 87.585 C 135.200 88.862,134.982 89.301,134.000 90.000 C 133.020 90.698,132.800 91.139,132.800 92.407 C 132.800 93.711,132.576 94.130,131.400 95.027 C 130.023 96.077,130.000 96.143,130.000 99.047 C 130.000 100.671,129.854 102.000,129.675 102.000 C 128.222 102.000,127.600 103.664,127.600 107.549 C 127.600 111.399,127.579 111.487,126.400 112.537 L 125.200 113.606 125.200 126.337 L 125.200 139.068 126.400 140.137 C 127.581 141.189,127.600 141.269,127.600 145.176 C 127.600 149.130,127.605 149.149,128.800 150.000 C 129.930 150.805,130.000 151.012,130.000 153.549 C 130.000 156.103,130.073 156.314,131.400 157.600 C 132.454 158.622,132.800 159.290,132.800 160.304 C 132.800 161.310,133.104 161.907,134.000 162.661 C 134.950 163.461,135.200 163.991,135.200 165.208 C 135.200 166.460,135.423 166.904,136.400 167.600 C 137.356 168.281,137.600 168.750,137.600 169.905 C 137.600 171.169,137.935 171.677,140.200 173.843 C 141.630 175.212,142.800 176.488,142.800 176.679 C 142.800 176.871,143.340 177.346,144.000 177.736 C 144.985 178.318,145.202 178.710,145.208 179.923 C 145.220 182.034,175.215 212.132,177.689 212.515 C 178.789 212.686,179.650 213.248,180.990 214.673 C 183.285 217.112,183.212 217.037,184.400 218.180 C 184.950 218.709,185.580 219.345,185.800 219.593 C 186.020 219.841,187.055 220.836,188.100 221.803 C 189.620 223.210,190.001 223.825,190.007 224.881 C 190.014 226.078,191.290 227.473,203.807 239.970 C 216.471 252.612,217.600 253.850,217.600 255.086 C 217.600 256.217,218.015 256.835,220.200 258.956 L 222.800 261.481 222.800 264.074 C 222.800 266.452,222.900 266.757,224.000 267.737 L 225.200 268.806 225.200 275.191 L 225.200 281.576 224.000 282.463 C 223.042 283.172,222.800 283.649,222.800 284.834 C 222.800 286.028,222.527 286.557,221.400 287.546 C 220.254 288.553,220.000 289.056,220.000 290.320 C 220.000 291.539,219.799 291.973,219.044 292.376 C 218.518 292.658,217.866 293.303,217.594 293.810 C 217.093 294.748,216.118 295.185,214.503 295.195 C 214.010 295.198,213.125 295.740,212.537 296.400 C 211.707 297.332,211.131 297.600,209.961 297.600 C 208.744 297.600,208.290 297.830,207.600 298.800 L 206.746 300.000 200.048 300.000 L 193.350 300.000 192.463 298.800 C 191.775 297.869,191.266 297.600,190.192 297.600 C 188.071 297.600,177.600 287.147,177.600 285.030 C 177.600 283.932,177.337 283.430,176.400 282.737 C 175.262 281.896,175.200 281.702,175.200 279.005 C 175.200 277.326,175.003 275.963,174.720 275.680 C 174.027 274.987,126.373 274.987,125.680 275.680 C 125.355 276.005,125.200 277.873,125.200 281.468 L 125.200 286.776 126.400 287.663 C 127.593 288.545,127.600 288.574,127.600 292.511 C 127.600 296.412,127.618 296.488,128.800 297.525 C 129.901 298.491,130.000 298.792,130.000 301.161 C 130.000 303.601,130.077 303.814,131.400 305.026 C 132.489 306.023,132.800 306.619,132.800 307.709 C 132.800 308.787,133.075 309.328,133.996 310.055 C 134.945 310.805,135.193 311.313,135.196 312.512 C 135.200 313.835,135.501 314.315,137.600 316.337 C 139.544 318.210,140.000 318.891,140.000 319.920 C 140.000 321.846,152.971 334.800,154.899 334.800 C 155.960 334.800,156.620 335.255,158.672 337.400 C 160.877 339.704,161.333 340.000,162.680 340.004 C 163.888 340.007,164.394 340.253,165.145 341.204 C 165.870 342.122,166.414 342.400,167.481 342.400 C 168.526 342.400,169.134 342.699,169.925 343.600 C 170.731 344.519,171.318 344.800,172.427 344.800 C 175.221 344.800,175.177 344.561,175.295 360.426 L 175.400 374.600 200.000 374.600 L 224.600 374.600 224.800 360.267 C 225.023 344.262,224.917 344.800,227.873 344.800 C 228.836 344.800,229.483 344.475,230.263 343.600 C 231.081 342.682,231.674 342.400,232.791 342.400 C 233.948 342.400,234.433 342.152,235.137 341.200 C 235.833 340.258,236.330 340.000,237.446 340.000 C 238.711 340.000,239.282 339.581,242.631 336.200 C 245.790 333.010,246.595 332.400,247.647 332.400 C 249.500 332.400,257.600 324.322,257.600 322.473 C 257.600 321.444,258.212 320.622,261.200 317.643 C 264.370 314.482,264.800 313.885,264.800 312.647 C 264.800 311.510,265.068 311.036,266.200 310.173 C 267.366 309.283,267.600 308.852,267.600 307.588 C 267.600 306.394,267.855 305.856,268.800 305.061 C 269.919 304.120,270.000 303.866,270.000 301.301 C 270.000 298.709,270.069 298.499,271.200 297.663 C 272.394 296.781,272.400 296.755,272.400 292.791 C 272.400 288.868,272.419 288.790,273.600 287.737 L 274.800 286.668 274.800 273.823 L 274.800 260.978 273.600 259.925 C 272.491 258.952,272.400 258.668,272.400 256.200 C 272.400 253.732,272.309 253.448,271.200 252.475 C 270.089 251.500,270.000 251.221,270.000 248.723 C 270.000 246.188,269.927 245.970,268.800 245.137 C 267.836 244.424,267.600 243.953,267.600 242.741 C 267.600 241.867,267.339 241.014,266.981 240.716 C 265.219 239.249,264.800 238.572,264.800 237.200 C 264.800 236.053,264.549 235.565,263.600 234.863 C 262.656 234.165,262.400 233.671,262.400 232.546 C 262.400 231.327,262.048 230.772,260.000 228.768 C 258.089 226.898,257.600 226.168,257.600 225.181 C 257.600 224.131,256.841 223.179,252.600 218.913 C 248.397 214.686,247.600 213.690,247.600 212.667 C 247.600 211.643,204.615 167.631,194.464 158.263 C 193.950 157.789,191.700 155.543,189.464 153.273 C 185.003 148.743,185.102 148.843,182.100 145.887 C 180.359 144.172,179.999 143.578,179.996 142.409 C 179.994 141.324,179.718 140.783,178.796 140.055 C 177.838 139.298,177.600 138.803,177.600 137.567 C 177.600 136.316,177.373 135.856,176.400 135.137 L 175.200 134.250 175.200 126.391 L 175.200 118.532 176.400 117.463 C 177.299 116.662,177.600 116.044,177.600 115.000 C 177.600 113.956,177.901 113.338,178.800 112.537 C 179.680 111.753,180.000 111.112,180.000 110.132 C 180.000 108.244,183.471 104.800,185.374 104.800 C 186.307 104.800,186.966 104.465,187.737 103.600 C 188.517 102.724,189.164 102.400,190.128 102.400 C 191.075 102.400,191.777 102.059,192.600 101.200 L 193.750 100.000 200.248 100.000 L 206.746 100.000 207.600 101.200 C 208.299 102.182,208.738 102.400,210.015 102.400 C 211.286 102.400,211.741 102.623,212.463 103.600 C 213.159 104.542,213.657 104.800,214.775 104.802 C 216.792 104.805,220.000 108.073,220.000 110.124 C 220.000 111.232,220.276 111.716,221.400 112.573 C 222.574 113.469,222.800 113.890,222.800 115.187 C 222.800 116.413,223.028 116.899,223.900 117.534 C 224.900 118.261,225.018 118.620,225.200 121.467 L 225.400 124.600 250.000 124.600 L 274.600 124.600 274.712 119.029 L 274.823 113.459 273.612 112.352 C 272.425 111.268,272.400 111.167,272.400 107.426 C 272.400 103.686,272.375 103.584,271.200 102.537 C 270.089 101.547,270.000 101.266,270.000 98.746 C 270.000 96.185,269.929 95.971,268.800 95.137 C 267.854 94.437,267.600 93.945,267.600 92.813 C 267.600 91.689,267.295 91.088,266.200 90.056 C 265.121 89.038,264.800 88.416,264.800 87.344 C 264.800 86.160,264.442 85.617,262.400 83.703 C 260.395 81.824,260.000 81.234,260.000 80.118 C 260.000 78.099,247.098 65.200,245.079 65.200 C 243.965 65.200,243.357 64.782,241.290 62.600 C 239.147 60.338,238.641 60.000,237.388 60.000 C 236.279 60.000,235.716 59.724,234.939 58.800 C 234.139 57.850,233.609 57.600,232.392 57.600 C 231.140 57.600,230.696 57.377,230.000 56.400 C 229.344 55.479,228.837 55.200,227.817 55.200 C 224.741 55.200,224.808 55.535,224.698 39.600 L 224.600 25.400 200.383 25.297 C 181.880 25.218,176.052 25.308,175.683 25.677 " stroke="none" fill="#7c048c" fill-rule="evenodd"></path><path id="path1" d="M146.400 18.173 L 146.400 36.347 145.300 36.473 C 144.436 36.573,144.173 36.836,144.073 37.700 C 143.968 38.616,143.754 38.800,142.795 38.800 C 141.939 38.800,141.510 39.077,141.122 39.882 C 140.759 40.635,140.112 41.092,138.999 41.382 C 136.902 41.930,136.400 42.285,136.400 43.224 C 136.400 43.820,136.121 44.000,135.200 44.000 C 134.139 44.000,134.000 44.136,134.000 45.175 C 134.000 46.208,133.843 46.364,132.700 46.475 C 131.617 46.579,131.379 46.783,131.273 47.700 C 131.167 48.621,130.956 48.800,129.973 48.800 C 128.942 48.800,128.800 48.942,128.800 49.973 C 128.800 50.956,128.621 51.167,127.700 51.273 C 126.849 51.371,126.572 51.639,126.478 52.454 C 126.384 53.262,126.078 53.564,125.169 53.746 C 124.255 53.929,123.929 54.255,123.746 55.169 C 123.564 56.078,123.262 56.384,122.454 56.478 C 121.646 56.572,121.371 56.851,121.276 57.676 C 121.180 58.507,120.907 58.780,120.076 58.876 C 119.186 58.979,118.978 59.225,118.875 60.300 C 118.773 61.359,118.576 61.600,117.817 61.600 C 116.709 61.600,116.400 62.261,116.400 64.633 C 116.400 66.319,116.346 66.400,115.232 66.400 C 114.267 66.400,114.019 66.603,113.808 67.563 C 113.640 68.327,113.236 68.805,112.627 68.957 C 111.675 69.196,111.200 70.483,111.200 72.823 C 111.200 73.752,111.009 73.969,110.100 74.073 C 109.060 74.193,108.993 74.325,108.881 76.475 C 108.769 78.615,108.697 78.758,107.681 78.875 C 106.650 78.994,106.594 79.116,106.481 81.500 C 106.364 83.963,106.345 84.000,105.205 84.000 C 104.066 84.000,104.044 84.042,103.773 86.800 C 103.621 88.340,103.337 89.600,103.142 89.600 C 102.082 89.600,101.203 92.273,101.201 95.500 C 101.200 98.411,101.115 98.800,100.480 98.800 C 98.988 98.800,98.800 99.567,98.800 105.637 C 98.800 111.493,98.797 111.514,97.848 111.752 C 96.469 112.098,96.411 112.637,96.405 125.326 C 96.400 137.223,96.545 138.400,98.014 138.400 C 98.760 138.400,98.800 138.702,98.800 144.350 C 98.800 151.551,98.996 152.742,100.256 153.221 C 101.134 153.555,101.200 153.794,101.200 156.616 C 101.200 159.975,101.631 161.200,102.814 161.200 C 103.455 161.200,103.601 161.477,103.603 162.700 C 103.613 166.805,104.043 168.346,105.253 168.612 C 106.358 168.854,106.400 168.950,106.400 171.232 C 106.400 172.949,106.548 173.600,106.938 173.600 C 107.913 173.600,108.742 174.973,108.872 176.801 C 108.987 178.420,109.108 178.612,110.081 178.725 C 111.097 178.842,111.169 178.985,111.281 181.125 C 111.392 183.252,111.469 183.408,112.458 183.523 C 113.381 183.629,113.551 183.878,113.790 185.474 C 114.179 188.070,114.366 188.400,115.443 188.400 C 116.270 188.400,116.400 188.590,116.400 189.800 C 116.400 191.089,116.495 191.200,117.600 191.200 C 118.620 191.200,118.800 191.353,118.800 192.220 C 118.800 193.561,119.873 195.600,120.578 195.600 C 120.885 195.600,121.258 196.156,121.408 196.835 C 121.600 197.709,122.011 198.185,122.816 198.465 C 123.623 198.747,123.989 199.172,124.076 199.931 C 124.172 200.755,124.446 201.028,125.276 201.124 C 126.107 201.220,126.380 201.493,126.476 202.324 C 126.573 203.162,126.843 203.428,127.700 203.527 C 128.613 203.632,128.800 203.847,128.800 204.795 C 128.800 205.738,129.009 205.982,130.000 206.200 C 130.766 206.368,131.200 206.712,131.200 207.152 C 131.200 208.108,131.989 208.800,133.080 208.800 C 133.836 208.800,134.000 209.014,134.000 210.000 C 134.000 211.067,134.133 211.200,135.200 211.200 C 136.267 211.200,136.400 211.333,136.400 212.400 C 136.400 213.467,136.533 213.600,137.600 213.600 C 138.620 213.600,138.800 213.753,138.800 214.621 C 138.800 215.395,139.089 215.743,140.000 216.060 C 140.700 216.304,141.200 216.762,141.200 217.159 C 141.200 218.101,141.990 218.800,143.053 218.800 C 143.731 218.800,143.977 219.066,144.073 219.900 C 144.172 220.757,144.438 221.027,145.276 221.124 C 146.107 221.220,146.380 221.493,146.476 222.324 C 146.573 223.162,146.843 223.428,147.700 223.527 C 148.571 223.627,148.800 223.860,148.800 224.647 C 148.800 225.392,149.101 225.746,150.000 226.060 C 150.700 226.304,151.200 226.762,151.200 227.159 C 151.200 228.101,151.990 228.800,153.053 228.800 C 153.731 228.800,153.977 229.066,154.073 229.900 C 154.172 230.757,154.438 231.027,155.276 231.124 C 156.107 231.220,156.380 231.493,156.476 232.324 C 156.573 233.162,156.843 233.428,157.700 233.527 C 158.571 233.627,158.800 233.860,158.800 234.647 C 158.800 235.392,159.101 235.746,160.000 236.060 C 160.700 236.304,161.200 236.762,161.200 237.159 C 161.200 238.101,161.990 238.800,163.053 238.800 C 163.731 238.800,163.977 239.066,164.073 239.900 C 164.172 240.757,164.438 241.027,165.276 241.124 C 166.107 241.220,166.380 241.493,166.476 242.324 C 166.573 243.162,166.843 243.428,167.700 243.527 C 168.576 243.627,168.800 243.859,168.800 244.664 C 168.800 245.368,169.073 245.755,169.700 245.937 C 170.195 246.082,154.271 246.290,134.314 246.400 C 100.172 246.588,97.986 246.642,97.314 247.314 C 96.653 247.975,96.591 249.402,96.481 266.714 C 96.350 287.417,96.379 287.879,97.818 288.240 L 98.800 288.487 98.800 294.363 C 98.800 300.433,98.988 301.200,100.480 301.200 C 101.115 301.200,101.200 301.589,101.201 304.500 C 101.203 307.727,102.082 310.400,103.142 310.400 C 103.337 310.400,103.620 311.649,103.770 313.176 C 104.030 315.813,104.097 315.957,105.122 316.076 C 106.133 316.192,106.212 316.350,106.400 318.600 C 106.589 320.863,106.663 321.007,107.700 321.127 C 108.751 321.247,108.800 321.351,108.800 323.447 C 108.800 325.526,108.863 325.664,110.000 326.060 C 110.860 326.360,111.200 326.737,111.200 327.389 C 111.200 329.561,111.701 330.810,112.671 331.053 C 113.330 331.219,113.713 331.665,113.870 332.448 C 114.059 333.397,114.303 333.600,115.250 333.600 C 116.357 333.600,116.400 333.672,116.400 335.520 C 116.400 337.537,116.896 338.400,118.055 338.400 C 118.546 338.400,118.786 338.780,118.875 339.700 C 118.978 340.775,119.186 341.021,120.076 341.124 C 120.907 341.220,121.180 341.493,121.276 342.324 C 121.373 343.167,121.642 343.428,122.516 343.528 C 123.391 343.629,123.683 343.913,123.870 344.849 C 124.050 345.752,124.381 346.096,125.232 346.266 C 126.076 346.435,126.386 346.753,126.478 347.546 C 126.572 348.354,126.851 348.629,127.676 348.724 C 128.507 348.820,128.780 349.093,128.876 349.924 C 128.972 350.756,129.244 351.028,130.076 351.124 C 130.907 351.220,131.180 351.493,131.276 352.324 C 131.379 353.214,131.625 353.422,132.700 353.525 C 133.843 353.636,134.000 353.792,134.000 354.825 C 134.000 355.808,134.161 356.000,134.990 356.000 C 135.682 356.000,136.164 356.356,136.593 357.187 C 137.109 358.184,137.523 358.415,139.182 358.635 C 140.936 358.868,141.170 359.014,141.278 359.949 C 141.378 360.811,141.633 361.022,142.700 361.125 C 143.620 361.214,144.000 361.454,144.000 361.945 C 144.000 362.844,144.768 363.600,145.680 363.600 C 146.363 363.600,146.400 364.541,146.400 381.800 L 146.400 400.000 200.000 400.000 L 253.600 400.000 253.600 381.800 C 253.600 364.541,253.637 363.600,254.320 363.600 C 255.232 363.600,256.000 362.844,256.000 361.945 C 256.000 361.454,256.380 361.214,257.300 361.125 C 258.367 361.022,258.622 360.811,258.722 359.949 C 258.830 359.014,259.064 358.868,260.818 358.635 C 262.464 358.417,262.893 358.180,263.392 357.215 C 263.725 356.571,264.385 356.000,264.879 355.928 C 265.442 355.847,265.853 355.434,266.001 354.801 C 266.169 354.084,266.570 353.744,267.418 353.599 C 268.340 353.441,268.627 353.160,268.724 352.322 C 268.820 351.493,269.093 351.220,269.924 351.124 C 270.756 351.028,271.028 350.756,271.124 349.924 C 271.220 349.093,271.493 348.820,272.324 348.724 C 273.149 348.629,273.428 348.354,273.522 347.546 C 273.616 346.738,273.922 346.436,274.831 346.254 C 275.745 346.071,276.071 345.745,276.254 344.831 C 276.436 343.922,276.738 343.616,277.546 343.522 C 278.361 343.428,278.629 343.151,278.727 342.300 C 278.810 341.572,279.087 341.200,279.547 341.200 C 280.508 341.200,281.200 340.413,281.200 339.320 C 281.200 338.672,281.432 338.400,281.986 338.400 C 283.013 338.400,283.600 337.246,283.600 335.226 C 283.600 333.683,283.662 333.600,284.810 333.600 C 285.824 333.600,286.057 333.413,286.251 332.446 C 286.387 331.764,286.868 331.115,287.425 330.861 C 288.166 330.524,288.425 330.004,288.633 328.438 C 288.863 326.705,289.048 326.392,290.049 326.043 C 291.128 325.667,291.200 325.505,291.200 323.447 C 291.200 321.351,291.249 321.247,292.300 321.127 C 293.342 321.007,293.406 320.878,293.520 318.686 C 293.634 316.500,293.704 316.359,294.779 316.144 C 296.017 315.897,296.400 314.905,296.400 311.950 C 296.400 311.098,296.583 310.400,296.806 310.400 C 297.915 310.400,298.797 307.787,298.799 304.500 C 298.800 301.589,298.885 301.200,299.520 301.200 C 301.013 301.200,301.200 300.435,301.200 294.320 C 301.200 288.702,301.240 288.400,301.986 288.400 C 303.464 288.400,303.600 287.240,303.600 274.596 L 303.600 262.338 302.400 261.138 L 301.200 259.938 301.200 254.849 C 301.200 249.597,300.979 248.800,299.520 248.800 C 298.888 248.800,298.800 248.417,298.800 245.660 C 298.800 242.122,298.274 240.175,297.158 239.577 C 296.646 239.304,296.400 238.738,296.400 237.836 C 296.400 234.946,295.993 234.000,294.750 234.000 C 293.613 234.000,293.600 233.974,293.600 231.626 C 293.600 228.764,293.065 227.194,291.995 226.915 C 291.406 226.760,291.200 226.368,291.200 225.396 C 291.200 224.497,290.830 223.689,290.024 222.826 C 289.347 222.101,288.796 221.023,288.724 220.284 C 288.623 219.234,288.408 218.978,287.549 218.878 C 286.582 218.766,286.477 218.567,286.229 216.378 C 285.970 214.085,285.919 214.000,284.805 214.000 C 283.795 214.000,283.635 213.838,283.525 212.700 C 283.421 211.617,283.217 211.379,282.300 211.273 C 281.273 211.155,281.200 211.022,281.200 209.253 C 281.200 207.262,280.700 206.400,279.547 206.400 C 279.090 206.400,278.810 206.029,278.727 205.316 C 278.637 204.548,278.315 204.165,277.622 204.003 C 276.942 203.844,276.543 203.383,276.311 202.487 C 276.029 201.401,275.791 201.200,274.789 201.200 C 273.669 201.200,273.600 201.108,273.600 199.600 C 273.600 198.081,272.576 196.400,271.650 196.400 C 271.457 196.400,271.192 195.860,271.060 195.200 C 270.872 194.259,270.609 194.000,269.842 194.000 C 269.096 194.000,268.805 193.734,268.618 192.883 C 268.454 192.137,267.989 191.620,267.220 191.330 C 266.477 191.050,266.020 190.559,265.934 189.948 C 265.837 189.259,265.506 188.966,264.724 188.876 C 263.893 188.780,263.620 188.507,263.524 187.676 C 263.428 186.844,263.156 186.572,262.324 186.476 C 261.493 186.380,261.220 186.107,261.124 185.276 C 261.027 184.438,260.757 184.172,259.900 184.073 C 259.066 183.977,258.800 183.731,258.800 183.053 C 258.800 181.990,258.101 181.200,257.159 181.200 C 256.762 181.200,256.304 180.700,256.060 180.000 C 255.746 179.101,255.392 178.800,254.647 178.800 C 253.860 178.800,253.627 178.571,253.527 177.700 C 253.428 176.843,253.162 176.573,252.324 176.476 C 251.493 176.380,251.220 176.107,251.124 175.276 C 251.027 174.438,250.757 174.172,249.900 174.073 C 249.066 173.977,248.800 173.731,248.800 173.053 C 248.800 171.990,248.101 171.200,247.159 171.200 C 246.762 171.200,246.304 170.700,246.060 170.000 C 245.746 169.101,245.392 168.800,244.647 168.800 C 243.860 168.800,243.627 168.571,243.527 167.700 C 243.428 166.843,243.162 166.573,242.324 166.476 C 241.493 166.380,241.220 166.107,241.124 165.276 C 241.027 164.438,240.757 164.172,239.900 164.073 C 239.066 163.977,238.800 163.731,238.800 163.053 C 238.800 161.990,238.101 161.200,237.159 161.200 C 236.762 161.200,236.304 160.700,236.060 160.000 C 235.746 159.101,235.392 158.800,234.647 158.800 C 233.860 158.800,233.627 158.571,233.527 157.700 C 233.428 156.843,233.162 156.573,232.324 156.476 C 231.493 156.380,231.220 156.107,231.124 155.278 C 231.028 154.449,230.726 154.146,229.800 153.952 C 229.140 153.814,245.109 153.633,265.286 153.550 C 299.851 153.409,302.013 153.359,302.686 152.686 C 303.349 152.023,303.408 150.576,303.511 132.580 C 303.626 112.482,303.562 111.600,301.986 111.600 C 301.240 111.600,301.200 111.298,301.200 105.680 C 301.200 99.565,301.013 98.800,299.520 98.800 C 298.888 98.800,298.800 98.417,298.800 95.660 C 298.800 92.122,298.274 90.175,297.158 89.577 C 296.646 89.304,296.400 88.738,296.400 87.836 C 296.400 84.962,295.991 84.000,294.769 84.000 C 293.661 84.000,293.636 83.949,293.519 81.500 C 293.406 79.116,293.350 78.994,292.319 78.875 C 291.303 78.758,291.231 78.615,291.119 76.475 C 291.007 74.325,290.940 74.193,289.900 74.073 C 288.991 73.969,288.800 73.752,288.800 72.823 C 288.800 70.503,288.324 69.196,287.392 68.962 C 286.794 68.812,286.408 68.339,286.254 67.568 C 286.057 66.586,285.827 66.400,284.810 66.400 C 283.662 66.400,283.600 66.317,283.600 64.774 C 283.600 62.754,283.013 61.600,281.986 61.600 C 281.432 61.600,281.200 61.328,281.200 60.680 C 281.200 59.587,280.508 58.800,279.547 58.800 C 279.087 58.800,278.810 58.428,278.727 57.700 C 278.629 56.849,278.361 56.572,277.546 56.478 C 276.753 56.386,276.435 56.076,276.266 55.232 C 276.096 54.381,275.752 54.050,274.849 53.870 C 273.913 53.683,273.629 53.391,273.528 52.516 C 273.428 51.642,273.167 51.373,272.324 51.276 C 271.493 51.180,271.220 50.907,271.124 50.076 C 271.028 49.244,270.756 48.972,269.924 48.876 C 269.093 48.780,268.820 48.507,268.724 47.676 C 268.627 46.833,268.358 46.572,267.484 46.472 C 266.614 46.372,266.317 46.086,266.134 45.172 C 265.946 44.229,265.692 44.000,264.838 44.000 C 264.029 44.000,263.669 43.719,263.330 42.819 C 262.941 41.789,262.627 41.605,260.864 41.371 C 259.062 41.132,258.831 40.989,258.722 40.051 C 258.622 39.189,258.367 38.978,257.300 38.875 C 256.219 38.770,256.000 38.583,256.000 37.765 C 256.000 36.991,255.743 36.729,254.800 36.540 L 253.600 36.300 253.600 18.150 L 253.600 0.000 200.000 0.000 L 146.400 0.000 146.400 18.173 M224.698 39.600 C 224.808 55.535,224.741 55.200,227.817 55.200 C 228.837 55.200,229.344 55.479,230.000 56.400 C 230.696 57.377,231.140 57.600,232.392 57.600 C 233.609 57.600,234.139 57.850,234.939 58.800 C 235.716 59.724,236.279 60.000,237.388 60.000 C 238.641 60.000,239.147 60.338,241.290 62.600 C 243.357 64.782,243.965 65.200,245.079 65.200 C 247.098 65.200,260.000 78.099,260.000 80.118 C 260.000 81.234,260.395 81.824,262.400 83.703 C 264.442 85.617,264.800 86.160,264.800 87.344 C 264.800 88.416,265.121 89.038,266.200 90.056 C 267.295 91.088,267.600 91.689,267.600 92.813 C 267.600 93.945,267.854 94.437,268.800 95.137 C 269.929 95.971,270.000 96.185,270.000 98.746 C 270.000 101.266,270.089 101.547,271.200 102.537 C 272.375 103.584,272.400 103.686,272.400 107.426 C 272.400 111.167,272.425 111.268,273.612 112.352 L 274.823 113.459 274.712 119.029 L 274.600 124.600 250.000 124.600 L 225.400 124.600 225.200 121.467 C 225.018 118.620,224.900 118.261,223.900 117.534 C 223.028 116.899,222.800 116.413,222.800 115.187 C 222.800 113.890,222.574 113.469,221.400 112.573 C 220.276 111.716,220.000 111.232,220.000 110.124 C 220.000 108.073,216.792 104.805,214.775 104.802 C 213.657 104.800,213.159 104.542,212.463 103.600 C 211.741 102.623,211.286 102.400,210.015 102.400 C 208.738 102.400,208.299 102.182,207.600 101.200 L 206.746 100.000 200.248 100.000 L 193.750 100.000 192.600 101.200 C 191.777 102.059,191.075 102.400,190.128 102.400 C 189.164 102.400,188.517 102.724,187.737 103.600 C 186.966 104.465,186.307 104.800,185.374 104.800 C 183.471 104.800,180.000 108.244,180.000 110.132 C 180.000 111.112,179.680 111.753,178.800 112.537 C 177.901 113.338,177.600 113.956,177.600 115.000 C 177.600 116.044,177.299 116.662,176.400 117.463 L 175.200 118.532 175.200 126.391 L 175.200 134.250 176.400 135.137 C 177.373 135.856,177.600 136.316,177.600 137.567 C 177.600 138.803,177.838 139.298,178.796 140.055 C 179.718 140.783,179.994 141.324,179.996 142.409 C 179.999 143.578,180.359 144.172,182.100 145.887 C 185.102 148.843,185.003 148.743,189.464 153.273 C 191.700 155.543,193.950 157.789,194.464 158.263 C 204.615 167.631,247.600 211.643,247.600 212.667 C 247.600 213.690,248.397 214.686,252.600 218.913 C 256.841 223.179,257.600 224.131,257.600 225.181 C 257.600 226.168,258.089 226.898,260.000 228.768 C 262.048 230.772,262.400 231.327,262.400 232.546 C 262.400 233.671,262.656 234.165,263.600 234.863 C 264.549 235.565,264.800 236.053,264.800 237.200 C 264.800 238.572,265.219 239.249,266.981 240.716 C 267.339 241.014,267.600 241.867,267.600 242.741 C 267.600 243.953,267.836 244.424,268.800 245.137 C 269.927 245.970,270.000 246.188,270.000 248.723 C 270.000 251.221,270.089 251.500,271.200 252.475 C 272.309 253.448,272.400 253.732,272.400 256.200 C 272.400 258.668,272.491 258.952,273.600 259.925 L 274.800 260.978 274.800 273.823 L 274.800 286.668 273.600 287.737 C 272.419 288.790,272.400 288.868,272.400 292.791 C 272.400 296.755,272.394 296.781,271.200 297.663 C 270.069 298.499,270.000 298.709,270.000 301.301 C 270.000 303.866,269.919 304.120,268.800 305.061 C 267.855 305.856,267.600 306.394,267.600 307.588 C 267.600 308.852,267.366 309.283,266.200 310.173 C 265.068 311.036,264.800 311.510,264.800 312.647 C 264.800 313.885,264.370 314.482,261.200 317.643 C 258.212 320.622,257.600 321.444,257.600 322.473 C 257.600 324.322,249.500 332.400,247.647 332.400 C 246.595 332.400,245.790 333.010,242.631 336.200 C 239.282 339.581,238.711 340.000,237.446 340.000 C 236.330 340.000,235.833 340.258,235.137 341.200 C 234.433 342.152,233.948 342.400,232.791 342.400 C 231.674 342.400,231.081 342.682,230.263 343.600 C 229.483 344.475,228.836 344.800,227.873 344.800 C 224.917 344.800,225.023 344.262,224.800 360.267 L 224.600 374.600 200.000 374.600 L 175.400 374.600 175.295 360.426 C 175.177 344.561,175.221 344.800,172.427 344.800 C 171.318 344.800,170.731 344.519,169.925 343.600 C 169.134 342.699,168.526 342.400,167.481 342.400 C 166.414 342.400,165.870 342.122,165.145 341.204 C 164.394 340.253,163.888 340.007,162.680 340.004 C 161.333 340.000,160.877 339.704,158.672 337.400 C 156.620 335.255,155.960 334.800,154.899 334.800 C 152.971 334.800,140.000 321.846,140.000 319.920 C 140.000 318.891,139.544 318.210,137.600 316.337 C 135.501 314.315,135.200 313.835,135.196 312.512 C 135.193 311.313,134.945 310.805,133.996 310.055 C 133.075 309.328,132.800 308.787,132.800 307.709 C 132.800 306.619,132.489 306.023,131.400 305.026 C 130.077 303.814,130.000 303.601,130.000 301.161 C 130.000 298.792,129.901 298.491,128.800 297.525 C 127.618 296.488,127.600 296.412,127.600 292.511 C 127.600 288.574,127.593 288.545,126.400 287.663 L 125.200 286.776 125.200 281.468 C 125.200 277.873,125.355 276.005,125.680 275.680 C 126.373 274.987,174.027 274.987,174.720 275.680 C 175.003 275.963,175.200 277.326,175.200 279.005 C 175.200 281.702,175.262 281.896,176.400 282.737 C 177.337 283.430,177.600 283.932,177.600 285.030 C 177.600 287.147,188.071 297.600,190.192 297.600 C 191.266 297.600,191.775 297.869,192.463 298.800 L 193.350 300.000 200.048 300.000 L 206.746 300.000 207.600 298.800 C 208.290 297.830,208.744 297.600,209.961 297.600 C 211.131 297.600,211.707 297.332,212.537 296.400 C 213.125 295.740,214.010 295.198,214.503 295.195 C 216.118 295.185,217.093 294.748,217.594 293.810 C 217.866 293.303,218.518 292.658,219.044 292.376 C 219.799 291.973,220.000 291.539,220.000 290.320 C 220.000 289.056,220.254 288.553,221.400 287.546 C 222.527 286.557,222.800 286.028,222.800 284.834 C 222.800 283.649,223.042 283.172,224.000 282.463 L 225.200 281.576 225.200 275.191 L 225.200 268.806 224.000 267.737 C 222.900 266.757,222.800 266.452,222.800 264.074 L 222.800 261.481 220.200 258.956 C 218.015 256.835,217.600 256.217,217.600 255.086 C 217.600 253.850,216.471 252.612,203.807 239.970 C 191.290 227.473,190.014 226.078,190.007 224.881 C 190.001 223.825,189.620 223.210,188.100 221.803 C 187.055 220.836,186.020 219.841,185.800 219.593 C 185.580 219.345,184.950 218.709,184.400 218.180 C 183.212 217.037,183.285 217.112,180.990 214.673 C 179.650 213.248,178.789 212.686,177.689 212.515 C 175.215 212.132,145.220 182.034,145.208 179.923 C 145.202 178.710,144.985 178.318,144.000 177.736 C 143.340 177.346,142.800 176.871,142.800 176.679 C 142.800 176.488,141.630 175.212,140.200 173.843 C 137.935 171.677,137.600 171.169,137.600 169.905 C 137.600 168.750,137.356 168.281,136.400 167.600 C 135.423 166.904,135.200 166.460,135.200 165.208 C 135.200 163.991,134.950 163.461,134.000 162.661 C 133.104 161.907,132.800 161.310,132.800 160.304 C 132.800 159.290,132.454 158.622,131.400 157.600 C 130.073 156.314,130.000 156.103,130.000 153.549 C 130.000 151.012,129.930 150.805,128.800 150.000 C 127.605 149.149,127.600 149.130,127.600 145.176 C 127.600 141.269,127.581 141.189,126.400 140.137 L 125.200 139.068 125.200 126.337 L 125.200 113.606 126.400 112.537 C 127.579 111.487,127.600 111.399,127.600 107.549 C 127.600 103.664,128.222 102.000,129.675 102.000 C 129.854 102.000,130.000 100.671,130.000 99.047 C 130.000 96.143,130.023 96.077,131.400 95.027 C 132.576 94.130,132.800 93.711,132.800 92.407 C 132.800 91.139,133.020 90.698,134.000 90.000 C 134.982 89.301,135.200 88.862,135.200 87.585 C 135.200 86.316,135.423 85.859,136.396 85.140 C 137.054 84.653,137.687 83.957,137.803 83.592 C 137.918 83.227,138.460 82.689,139.007 82.396 C 139.794 81.975,140.000 81.553,140.000 80.358 C 140.000 79.049,140.293 78.575,142.242 76.726 C 143.475 75.557,144.690 74.376,144.942 74.103 C 150.165 68.430,153.822 65.200,155.020 65.200 C 156.092 65.200,156.764 64.745,158.860 62.600 C 161.076 60.332,161.588 60.001,162.873 60.000 C 164.052 60.000,164.516 59.761,165.200 58.800 C 165.897 57.821,166.339 57.600,167.600 57.600 C 168.861 57.600,169.303 57.379,170.000 56.400 C 170.680 55.445,171.155 55.197,172.327 55.187 C 175.318 55.161,175.200 55.777,175.200 40.136 C 175.200 29.750,175.324 26.036,175.683 25.677 C 176.052 25.308,181.880 25.218,200.383 25.297 L 224.600 25.400 224.698 39.600 " stroke="none" fill="#030303" fill-rule="evenodd"></path></g></svg>